REM DIRINDEX 1\2\4\8,1\2\4\9,1\2\4\10,1\2\5\11,1\2\5\12,1\2\5\13,1\2\5\14,1\2\5\15,1\3\6\16,1\3\6\17,1\3\6\18,1\3\7\19,1\3\7\20,1\3\7\21,1\3\7\22,1\3\7\23
REM DIRNAME "folder01","folder02","folder03","folder04","folder05","folder06","folder07","folder08","folder09","folder10","folder11","folder12","folder13","folder14","folder15","folder16","folder17","folder18","folder19","folder20","folder21","folder22","folder23"
TITLE ""
FILE "LR_black_phrase_E_C07.mp3" MP3
  TRACK 01 AUDIO
    TITLE "0:"
    INDEX 01 00:00:00
  TRACK 02 AUDIO
    TITLE "16:cjc171_10161"
    INDEX 01 00:00:14
  TRACK 03 AUDIO
    TITLE "0:"
    INDEX 01 00:01:53
  TRACK 04 AUDIO
    TITLE "17:cjc171_10162"
    INDEX 01 00:02:09
  TRACK 05 AUDIO
    TITLE "0:"
    INDEX 01 00:04:16
  TRACK 06 AUDIO
    TITLE "18:cjc171_10163"
    INDEX 01 00:04:73
  TRACK 07 AUDIO
    TITLE "0:"
    INDEX 01 00:07:06
  TRACK 08 AUDIO
    TITLE "16:cjc171_10164"
    INDEX 01 00:08:12
  TRACK 09 AUDIO
    TITLE "0:"
    INDEX 01 00:09:31
  TRACK 10 AUDIO
    TITLE "17:cjc171_10165"
    INDEX 01 00:09:60
  TRACK 11 AUDIO
    TITLE "0:"
    INDEX 01 00:11:51
  TRACK 12 AUDIO
    TITLE "18:cjc171_10166"
    INDEX 01 00:12:27
  TRACK 13 AUDIO
    TITLE "0:"
    INDEX 01 00:14:18
  TRACK 14 AUDIO
    TITLE "16:cjc171_10167"
    INDEX 01 00:15:16
  TRACK 15 AUDIO
    TITLE "0:"
    INDEX 01 00:16:31
  TRACK 16 AUDIO
    TITLE "17:cjc171_10168"
    INDEX 01 00:16:54
  TRACK 17 AUDIO
    TITLE "0:"
    INDEX 01 00:20:31
  TRACK 18 AUDIO
    TITLE "18:cjc171_10169"
    INDEX 01 00:21:03
  TRACK 19 AUDIO
    TITLE "0:"
    INDEX 01 00:24:52
  TRACK 20 AUDIO
    TITLE "16:cjc171_10170"
    INDEX 01 00:25:53
  TRACK 21 AUDIO
    TITLE "0:"
    INDEX 01 00:26:70
  TRACK 22 AUDIO
    TITLE "17:cjc171_10171"
    INDEX 01 00:27:15
  TRACK 23 AUDIO
    TITLE "0:"
    INDEX 01 00:28:69
  TRACK 24 AUDIO
    TITLE "18:cjc171_10172"
    INDEX 01 00:29:45
  TRACK 25 AUDIO
    TITLE "0:"
    INDEX 01 00:31:28
  TRACK 26 AUDIO
    TITLE "16:cjc171_10173"
    INDEX 01 00:32:30
  TRACK 27 AUDIO
    TITLE "0:"
    INDEX 01 00:33:53
  TRACK 28 AUDIO
    TITLE "17:cjc171_10174"
    INDEX 01 00:34:07
  TRACK 29 AUDIO
    TITLE "0:"
    INDEX 01 00:37:11
  TRACK 30 AUDIO
    TITLE "18:cjc171_10175"
    INDEX 01 00:37:62
  TRACK 31 AUDIO
    TITLE "0:"
    INDEX 01 00:40:65
  TRACK 32 AUDIO
    TITLE "16:cjc171_10176"
    INDEX 01 00:41:68
  TRACK 33 AUDIO
    TITLE "0:"
    INDEX 01 00:43:16
  TRACK 34 AUDIO
    TITLE "17:cjc171_10177"
    INDEX 01 00:43:45
  TRACK 35 AUDIO
    TITLE "0:"
    INDEX 01 00:45:27
  TRACK 36 AUDIO
    TITLE "18:cjc171_10178"
    INDEX 01 00:46:06
  TRACK 37 AUDIO
    TITLE "0:"
    INDEX 01 00:47:61
  TRACK 38 AUDIO
    TITLE "16:cjc171_10179"
    INDEX 01 00:48:60
  TRACK 39 AUDIO
    TITLE "0:"
    INDEX 01 00:50:06
  TRACK 40 AUDIO
    TITLE "17:cjc171_10180"
    INDEX 01 00:50:38
  TRACK 41 AUDIO
    TITLE "0:"
    INDEX 01 00:52:70
  TRACK 42 AUDIO
    TITLE "18:cjc171_10181"
    INDEX 01 00:53:44
  TRACK 43 AUDIO
    TITLE "0:"
    INDEX 01 00:56:03
  TRACK 44 AUDIO
    TITLE "16:cjc171_10182"
    INDEX 01 00:56:72
  TRACK 45 AUDIO
    TITLE "0:"
    INDEX 01 00:58:00
  TRACK 46 AUDIO
    TITLE "17:cjc171_10183"
    INDEX 01 00:58:25
  TRACK 47 AUDIO
    TITLE "0:"
    INDEX 01 01:00:07
  TRACK 48 AUDIO
    TITLE "18:cjc171_10184"
    INDEX 01 01:00:61
  TRACK 49 AUDIO
    TITLE "0:"
    INDEX 01 01:02:45
  TRACK 50 AUDIO
    TITLE "16:cjc171_10185"
    INDEX 01 01:03:50
  TRACK 51 AUDIO
    TITLE "0:"
    INDEX 01 01:05:14
  TRACK 52 AUDIO
    TITLE "17:cjc171_10186"
    INDEX 01 01:05:43
  TRACK 53 AUDIO
    TITLE "0:"
    INDEX 01 01:07:69
  TRACK 54 AUDIO
    TITLE "18:cjc171_10187"
    INDEX 01 01:08:47
  TRACK 55 AUDIO
    TITLE "0:"
    INDEX 01 01:10:74
  TRACK 56 AUDIO
    TITLE "16:cjc171_10188"
    INDEX 01 01:12:02
  TRACK 57 AUDIO
    TITLE "0:"
    INDEX 01 01:13:25
  TRACK 58 AUDIO
    TITLE "17:cjc171_10189"
    INDEX 01 01:13:54
  TRACK 59 AUDIO
    TITLE "0:"
    INDEX 01 01:15:53
  TRACK 60 AUDIO
    TITLE "18:cjc171_10190"
    INDEX 01 01:16:35
  TRACK 61 AUDIO
    TITLE "0:"
    INDEX 01 01:18:34
  TRACK 62 AUDIO
    TITLE "16:cjc171_10191"
    INDEX 01 01:19:37
  TRACK 63 AUDIO
    TITLE "0:"
    INDEX 01 01:20:43
  TRACK 64 AUDIO
    TITLE "17:cjc171_10192"
    INDEX 01 01:20:58
  TRACK 65 AUDIO
    TITLE "0:"
    INDEX 01 01:23:66
  TRACK 66 AUDIO
    TITLE "18:cjc171_10193"
    INDEX 01 01:24:31
  TRACK 67 AUDIO
    TITLE "0:"
    INDEX 01 01:27:39
  TRACK 68 AUDIO
    TITLE "16:cjc171_10194"
    INDEX 01 01:28:32
  TRACK 69 AUDIO
    TITLE "0:"
    INDEX 01 01:29:53
  TRACK 70 AUDIO
    TITLE "17:cjc171_10195"
    INDEX 01 01:30:00
  TRACK 71 AUDIO
    TITLE "0:"
    INDEX 01 01:32:42
  TRACK 72 AUDIO
    TITLE "18:cjc171_10196"
    INDEX 01 01:33:28
  TRACK 73 AUDIO
    TITLE "0:"
    INDEX 01 01:36:04
  TRACK 74 AUDIO
    TITLE "16:cjc171_10197"
    INDEX 01 01:37:10
  TRACK 75 AUDIO
    TITLE "0:"
    INDEX 01 01:38:31
  TRACK 76 AUDIO
    TITLE "17:cjc171_10198"
    INDEX 01 01:38:60
  TRACK 77 AUDIO
    TITLE "0:"
    INDEX 01 01:40:55
  TRACK 78 AUDIO
    TITLE "18:cjc171_10199"
    INDEX 01 01:41:35
  TRACK 79 AUDIO
    TITLE "0:"
    INDEX 01 01:43:32
  TRACK 80 AUDIO
    TITLE "16:cjc171_10200"
    INDEX 01 01:44:35
  TRACK 81 AUDIO
    TITLE "0:"
    INDEX 01 01:45:46
  TRACK 82 AUDIO
    TITLE "17:cjc171_10201"
    INDEX 01 01:45:74
  TRACK 83 AUDIO
    TITLE "0:"
    INDEX 01 01:48:08
  TRACK 84 AUDIO
    TITLE "18:cjc171_10202"
    INDEX 01 01:48:62
  TRACK 85 AUDIO
    TITLE "0:"
    INDEX 01 01:50:71
  TRACK 86 AUDIO
    TITLE "16:cjc171_10203"
    INDEX 01 01:51:71
  TRACK 87 AUDIO
    TITLE "0:"
    INDEX 01 01:53:05
  TRACK 88 AUDIO
    TITLE "17:cjc171_10204"
    INDEX 01 01:53:28
  TRACK 89 AUDIO
    TITLE "0:"
    INDEX 01 01:55:25
  TRACK 90 AUDIO
    TITLE "18:cjc171_10205"
    INDEX 01 01:55:72
  TRACK 91 AUDIO
    TITLE "0:"
    INDEX 01 01:57:73
  TRACK 92 AUDIO
    TITLE "16:cjc171_10206"
    INDEX 01 01:58:71
  TRACK 93 AUDIO
    TITLE "0:"
    INDEX 01 02:00:36
  TRACK 94 AUDIO
    TITLE "17:cjc171_10207"
    INDEX 01 02:00:58
  TRACK 95 AUDIO
    TITLE "0:"
    INDEX 01 02:03:40
  TRACK 96 AUDIO
    TITLE "18:cjc171_10208"
    INDEX 01 02:04:12
  TRACK 97 AUDIO
    TITLE "0:"
    INDEX 01 02:06:70
  TRACK 98 AUDIO
    TITLE "16:cjc171_10209"
    INDEX 01 02:08:01
  TRACK 99 AUDIO
    TITLE "0:"
    INDEX 01 02:09:00
  TRACK 100 AUDIO
    TITLE "17:cjc171_10210"
    INDEX 01 02:09:29
  TRACK 101 AUDIO
    TITLE "0:"
    INDEX 01 02:11:01
  TRACK 102 AUDIO
    TITLE "18:cjc171_10211"
    INDEX 01 02:11:56
  TRACK 103 AUDIO
    TITLE "0:"
    INDEX 01 02:13:27
  TRACK 104 AUDIO
    TITLE "16:cjc171_10212"
    INDEX 01 02:14:31
  TRACK 105 AUDIO
    TITLE "0:"
    INDEX 01 02:15:61
  TRACK 106 AUDIO
    TITLE "17:cjc171_10213"
    INDEX 01 02:16:16
  TRACK 107 AUDIO
    TITLE "0:"
    INDEX 01 02:18:11
  TRACK 108 AUDIO
    TITLE "18:cjc171_10214"
    INDEX 01 02:18:66
  TRACK 109 AUDIO
    TITLE "0:"
    INDEX 01 02:20:61
  TRACK 110 AUDIO
    TITLE "16:cjc171_10215"
    INDEX 01 02:21:62
  TRACK 111 AUDIO
    TITLE "0:"
    INDEX 01 02:23:04
  TRACK 112 AUDIO
    TITLE "17:cjc171_10216"
    INDEX 01 02:23:24
  TRACK 113 AUDIO
    TITLE "0:"
    INDEX 01 02:25:03
  TRACK 114 AUDIO
    TITLE "18:cjc171_10217"
    INDEX 01 02:25:50
  TRACK 115 AUDIO
    TITLE "0:"
    INDEX 01 02:27:29
  TRACK 116 AUDIO
    TITLE "16:cjc171_10218"
    INDEX 01 02:28:25
  TRACK 117 AUDIO
    TITLE "0:"
    INDEX 01 02:29:40
  TRACK 118 AUDIO
    TITLE "17:cjc171_10219"
    INDEX 01 02:29:59
  TRACK 119 AUDIO
    TITLE "0:"
    INDEX 01 02:31:54
  TRACK 120 AUDIO
    TITLE "18:cjc171_10220"
    INDEX 01 02:32:32
  TRACK 121 AUDIO
    TITLE "0:"
    INDEX 01 02:34:31
